<?xml version="1.0" encoding="UTF-8"?>
<svg xmlns="http://www.w3.org/2000/svg" width="3900" height="980" viewBox="120 40 3900 980">
<defs><marker id="arrow" markerWidth="10" markerHeight="10" refX="9" refY="3" orient="auto" markerUnits="strokeWidth"><path d="M0,0 L0,6 L9,3 z" fill="#333"/></marker></defs>
<style>text{font-family:Arial,Helvetica,sans-serif;font-size:11px;fill:#111}.lane{fill:#f8f9fb;stroke:#9aa5b1;stroke-width:1}.pool{fill:#fff;stroke:#4a5568;stroke-width:2}.task{fill:#fff;stroke:#2563eb;stroke-width:1.5}.gateway{fill:#fff;stroke:#d97706;stroke-width:1.5}.event-start{fill:#dcfce7;stroke:#16a34a;stroke-width:2}.event-end{fill:#fee2e2;stroke:#dc2626;stroke-width:3}.flow{fill:none;stroke:#4b5563;stroke-width:1.5;marker-end:url(#arrow)}.label-flow{fill:#374151;font-size:10px}.title{font-size:16px;font-weight:bold}</style>
<text class="title" x="140.0" y="64.0">Interv360 SAV MVP  Processus principal (lecture)</text>
<rect class="pool" x="160.0" y="80.0" width="3820.0" height="900.0"/>
<rect class="lane" x="190.0" y="80.0" width="3790.0" height="150.0"/>
<text x="198.0" y="98.0">Client / canal entrant</text>
<rect class="lane" x="190.0" y="230.0" width="3790.0" height="150.0"/>
<text x="198.0" y="248.0">Manager SAV</text>
<rect class="lane" x="190.0" y="380.0" width="3790.0" height="150.0"/>
<text x="198.0" y="398.0">Technicien</text>
<rect class="lane" x="190.0" y="530.0" width="3790.0" height="150.0"/>
<text x="198.0" y="548.0">Interv360</text>
<rect class="lane" x="190.0" y="680.0" width="3790.0" height="150.0"/>
<text x="198.0" y="698.0">CRM simulé / intégration</text>
<rect class="lane" x="190.0" y="830.0" width="3790.0" height="150.0"/>
<text x="198.0" y="848.0">Dashboard / pilotage</text>
<path class="flow" d="M 268.0,160.0 L 294.0,160.0 L 294.0,610.0 L 320.0,610.0"/>
<path class="flow" d="M 440.0,610.0 L 460.0,610.0 L 460.0,310.0 L 480.0,310.0"/>
<path class="flow" d="M 600.0,310.0 L 645.0,310.0"/>
<path class="flow" d="M 670.0,335.0 L 670.0,610.0 L 740.0,610.0"/>
<text class="label-flow" x="674.0" y="606.0">Oui</text>
<path class="flow" d="M 695.0,310.0 L 900.0,310.0"/>
<text class="label-flow" x="904.0" y="306.0">Non</text>
<path class="flow" d="M 900.0,310.0 L 820.0,310.0 L 820.0,360.0 L 540.0,360.0 L 540.0,310.0 L 600.0,310.0"/>
<path class="flow" d="M 860.0,610.0 L 880.0,610.0 L 880.0,310.0 L 905.0,310.0"/>
<path class="flow" d="M 955.0,310.0 L 1000.0,310.0"/>
<text class="label-flow" x="1004.0" y="306.0">Oui</text>
<path class="flow" d="M 930.0,335.0 L 930.0,400.0 L 1220.0,400.0 L 1220.0,350.0"/>
<text class="label-flow" x="1224.0" y="396.0">Non</text>
<path class="flow" d="M 1120.0,310.0 L 1160.0,310.0"/>
<path class="flow" d="M 1280.0,310.0 L 1320.0,310.0"/>
<path class="flow" d="M 1440.0,310.0 L 1480.0,310.0"/>
<path class="flow" d="M 1600.0,310.0 L 1620.0,310.0 L 1620.0,460.0 L 1640.0,460.0"/>
<path class="flow" d="M 1760.0,460.0 L 1800.0,460.0"/>
<path class="flow" d="M 1920.0,460.0 L 1965.0,460.0"/>
<path class="flow" d="M 2015.0,460.0 L 2060.0,460.0"/>
<text class="label-flow" x="2064.0" y="456.0">Oui</text>
<path class="flow" d="M 1990.0,435.0 L 1990.0,310.0 L 2180.0,310.0"/>
<text class="label-flow" x="1994.0" y="306.0">Non</text>
<path class="flow" d="M 2240.0,270.0 L 2240.0,105.0 L 1860.0,105.0 L 1860.0,420.0"/>
<path class="flow" d="M 2180.0,460.0 L 2220.0,460.0"/>
<path class="flow" d="M 2340.0,460.0 L 2385.0,460.0"/>
<path class="flow" d="M 2435.0,460.0 L 2480.0,460.0"/>
<text class="label-flow" x="2484.0" y="456.0">Oui</text>
<path class="flow" d="M 2410.0,435.0 L 2410.0,310.0 L 2480.0,310.0"/>
<text class="label-flow" x="2414.0" y="306.0">Non</text>
<path class="flow" d="M 2600.0,460.0 L 2620.0,460.0 L 2620.0,610.0 L 2640.0,610.0"/>
<path class="flow" d="M 2600.0,310.0 L 2620.0,310.0 L 2620.0,610.0 L 2640.0,610.0"/>
<path class="flow" d="M 2760.0,610.0 L 2780.0,610.0 L 2780.0,760.0 L 2800.0,760.0"/>
<path class="flow" d="M 2920.0,760.0 L 2965.0,760.0"/>
<path class="flow" d="M 3015.0,760.0 L 3035.0,760.0 L 3035.0,910.0 L 3220.0,910.0"/>
<text class="label-flow" x="3039.0" y="906.0">Oui</text>
<path class="flow" d="M 2990.0,785.0 L 2990.0,810.0 L 3060.0,760.0"/>
<text class="label-flow" x="2994.0" y="806.0">Non</text>
<path class="flow" d="M 3180.0,760.0 L 3200.0,760.0 L 3200.0,910.0 L 3220.0,910.0"/>
<path class="flow" d="M 3340.0,910.0 L 3382.0,910.0"/>
<circle class="event-start" cx="250.0" cy="160.0" r="18.0"/>
<text text-anchor="middle" x="250.0" y="164.0">Demande SAV reçue</text>
<rect class="task" x="320.0" y="570.0" width="120.0" height="80.0" rx="8"/>
<text text-anchor="middle" x="380.0" y="608.0">Créer ou</text><text text-anchor="middle" x="380.0" y="622.0">enregistrer la demande</text>
<rect class="task" x="480.0" y="270.0" width="120.0" height="80.0" rx="8"/>
<text text-anchor="middle" x="540.0" y="308.0">Vérifier les</text><text text-anchor="middle" x="540.0" y="322.0">données minimales</text>
<polygon class="gateway" points="670.0,285.0 695.0,310.0 670.0,335.0 645.0,310.0"/>
<text text-anchor="middle" x="670.0" y="314.0">Données suffisantes ?</text>
<rect class="task" x="900.0" y="270.0" width="120.0" height="80.0" rx="8"/>
<text text-anchor="middle" x="960.0" y="308.0">Compléter /</text><text text-anchor="middle" x="960.0" y="322.0">maintenir ŕ qualifier</text>
<rect class="task" x="740.0" y="570.0" width="120.0" height="80.0" rx="8"/>
<text text-anchor="middle" x="800.0" y="608.0">Rechercher</text><text text-anchor="middle" x="800.0" y="622.0">doublon potentiel</text>
<polygon class="gateway" points="930.0,285.0 955.0,310.0 930.0,335.0 905.0,310.0"/>
<text text-anchor="middle" x="930.0" y="308.0">Doublon potentiel</text><text text-anchor="middle" x="930.0" y="322.0">détecté ?</text>
<rect class="task" x="1000.0" y="270.0" width="120.0" height="80.0" rx="8"/>
<text text-anchor="middle" x="1060.0" y="308.0">Arbitrer le</text><text text-anchor="middle" x="1060.0" y="322.0">doublon manuellement</text>
<rect class="task" x="1160.0" y="270.0" width="120.0" height="80.0" rx="8"/>
<text text-anchor="middle" x="1220.0" y="314.0">Qualifier la demande</text>
<rect class="task" x="1320.0" y="270.0" width="120.0" height="80.0" rx="8"/>
<text text-anchor="middle" x="1380.0" y="314.0">Planifier l'intervention</text>
<rect class="task" x="1480.0" y="270.0" width="120.0" height="80.0" rx="8"/>
<text text-anchor="middle" x="1540.0" y="314.0">Affecter un technicien</text>
<rect class="task" x="1640.0" y="420.0" width="120.0" height="80.0" rx="8"/>
<text text-anchor="middle" x="1700.0" y="458.0">Consulter</text><text text-anchor="middle" x="1700.0" y="472.0">l'intervention planifiée</text>
<rect class="task" x="1800.0" y="420.0" width="120.0" height="80.0" rx="8"/>
<text text-anchor="middle" x="1860.0" y="464.0">Démarrer l'intervention</text>
<polygon class="gateway" points="1990.0,435.0 2015.0,460.0 1990.0,485.0 1965.0,460.0"/>
<text text-anchor="middle" x="1990.0" y="458.0">Intervention</text><text text-anchor="middle" x="1990.0" y="472.0">réalisable ?</text>
<rect class="task" x="2180.0" y="270.0" width="120.0" height="80.0" rx="8"/>
<text text-anchor="middle" x="2240.0" y="308.0">Passer en</text><text text-anchor="middle" x="2240.0" y="322.0">attente client</text>
<rect class="task" x="2060.0" y="420.0" width="120.0" height="80.0" rx="8"/>
<text text-anchor="middle" x="2120.0" y="464.0">Réaliser l'intervention</text>
<rect class="task" x="2220.0" y="420.0" width="120.0" height="80.0" rx="8"/>
<text text-anchor="middle" x="2280.0" y="458.0">Rédiger le</text><text text-anchor="middle" x="2280.0" y="472.0">compte rendu web</text>
<polygon class="gateway" points="2410.0,435.0 2435.0,460.0 2410.0,485.0 2385.0,460.0"/>
<text text-anchor="middle" x="2410.0" y="458.0">Signature client</text><text text-anchor="middle" x="2410.0" y="472.0">disponible ?</text>
<rect class="task" x="2480.0" y="420.0" width="120.0" height="80.0" rx="8"/>
<text text-anchor="middle" x="2540.0" y="464.0">Capturer la signature</text>
<rect class="task" x="2480.0" y="270.0" width="120.0" height="80.0" rx="8"/>
<text text-anchor="middle" x="2540.0" y="308.0">Renseigner le motif</text><text text-anchor="middle" x="2540.0" y="322.0">d'absence de signature</text>
<rect class="task" x="2640.0" y="570.0" width="120.0" height="80.0" rx="8"/>
<text text-anchor="middle" x="2700.0" y="614.0">Clôturer l'intervention</text>
<rect class="task" x="2800.0" y="720.0" width="120.0" height="80.0" rx="8"/>
<text text-anchor="middle" x="2860.0" y="758.0">Synchroniser la clôture</text><text text-anchor="middle" x="2860.0" y="772.0">vers CRM simulé</text>
<polygon class="gateway" points="2990.0,735.0 3015.0,760.0 2990.0,785.0 2965.0,760.0"/>
<text text-anchor="middle" x="2990.0" y="758.0">Synchronisation</text><text text-anchor="middle" x="2990.0" y="772.0">réussie ?</text>
<rect class="task" x="3060.0" y="720.0" width="120.0" height="80.0" rx="8"/>
<text text-anchor="middle" x="3120.0" y="758.0">Signaler</text><text text-anchor="middle" x="3120.0" y="772.0">anomalie d'intégration</text>
<rect class="task" x="3220.0" y="870.0" width="120.0" height="80.0" rx="8"/>
<text text-anchor="middle" x="3280.0" y="908.0">Mettre ŕ</text><text text-anchor="middle" x="3280.0" y="922.0">jour le dashboard</text>
<circle class="event-end" cx="3400.0" cy="910.0" r="18.0"/><circle fill="none" stroke="#dc2626" stroke-width="2" cx="3400.0" cy="910.0" r="14.0"/>
<text text-anchor="middle" x="3400.0" y="914.0">Intervention clôturée</text>
</svg>
