<?xml version="1.0" encoding="UTF-8"?>
<svg xmlns="http://www.w3.org/2000/svg" width="3080" height="1690" viewBox="80 -10 3080 1690">
<defs><marker id="arrow" markerWidth="10" markerHeight="10" refX="9" refY="3" orient="auto" markerUnits="strokeWidth"><path d="M0,0 L0,6 L9,3 z" fill="#333"/></marker></defs>
<style>text{font-family:Arial,sans-serif;font-size:11px;fill:#111}.lane{fill:#f8f9fb;stroke:#9aa5b1}.pool{fill:#fff;stroke:#4a5568;stroke-width:2}.group{fill:none;stroke:#94a3b8;stroke-dasharray:6 4}.grouplabel{font-size:12px;font-weight:bold;fill:#475569}.task{fill:#fff;stroke:#2563eb;stroke-width:1.5}.gateway{fill:#fff;stroke:#d97706;stroke-width:1.5}.event-start{fill:#dcfce7;stroke:#16a34a;stroke-width:2}.event-end{fill:#fee2e2;stroke:#dc2626;stroke-width:3}.flow{fill:none;stroke:#4b5563;stroke-width:1.5;marker-end:url(#arrow)}.label-flow{font-size:10px;fill:#374151}.title{font-size:16px;font-weight:bold}.annotation{fill:#fffbeb;stroke:#d97706}.ann-text{font-size:10px}</style>
<text class="title" x="100" y="14">Interv360 SAV Exceptions — Diagramme exceptions métier (lecture)</text>
<rect class="pool" x="120" y="60" width="3000" height="1580"/>
<rect class="lane" x="150" y="80" width="2970" height="1560"/>
<text x="158" y="98">Manager SAV</text>
<rect class="lane" x="150" y="280" width="2970" height="1560"/>
<text x="158" y="298">Technicien</text>
<rect class="lane" x="150" y="480" width="2970" height="1560"/>
<text x="158" y="498">Interv360</text>
<rect class="lane" x="150" y="680" width="2970" height="1560"/>
<text x="158" y="698">Dashboard / pilotage</text>
<rect class="group" x="180" y="40" width="720" height="760" rx="6"/>
<text class="grouplabel" x="188" y="56">1. Données insuffisantes</text>
<rect class="group" x="980" y="40" width="900" height="760" rx="6"/>
<text class="grouplabel" x="988" y="56">2. Doublon potentiel</text>
<rect class="group" x="1930" y="40" width="900" height="760" rx="6"/>
<text class="grouplabel" x="1938" y="56">3. Attente client</text>
<rect class="group" x="180" y="820" width="720" height="760" rx="6"/>
<text class="grouplabel" x="188" y="836">4. Retard (indicateur pilotage)</text>
<rect class="group" x="980" y="820" width="900" height="760" rx="6"/>
<text class="grouplabel" x="988" y="836">5. Clôture sans signature</text>
<path class="flow" d="M 256,120.0 L 320,120.0"/>
<path class="flow" d="M 440,120.0 L 470,120.0"/>
<path class="flow" d="M 590,120.0 L 545,180 L 545,540 L 620,540"/>
<path class="flow" d="M 740,520.0 L 750,580 L 750,180 L 770,180"/>
<path class="flow" d="M 795.0,132.0 L 920,120.0"/>
<text class="label-flow" x="924" y="116.0">Oui</text>
<path class="flow" d="M 795.0,132.0 L 770,200 L 380,200 L 380,140"/>
<text class="label-flow" x="384" y="196">Non</text>
<path class="flow" d="M 1056,520.0 L 1120,520.0"/>
<path class="flow" d="M 1240,520.0 L 1180,580 L 1180,180 L 1270,180"/>
<path class="flow" d="M 1390,120.0 L 1445.0,132.0"/>
<path class="flow" d="M 1470,132.0 L 1540,180"/>
<text class="label-flow" x="1544" y="176">Oui</text>
<path class="flow" d="M 1445.0,157 L 1445,210 L 1540,210"/>
<text class="label-flow" x="1449" y="206">Non</text>
<path class="flow" d="M 1660,120.0 L 1700,180"/>
<path class="flow" d="M 1660,150.0 L 1700,210"/>
<path class="flow" d="M 2006,320.0 L 2070,320.0"/>
<path class="flow" d="M 2190,320.0 L 2220,320.0"/>
<path class="flow" d="M 2340,320.0 L 2295,380 L 2295,540 L 2370,540"/>
<path class="flow" d="M 2490,520.0 L 2510,580 L 2510,405 L 2520,405"/>
<path class="flow" d="M 2545.0,332.0 L 2760,320.0"/>
<text class="label-flow" x="2764" y="316.0">Oui</text>
<path class="flow" d="M 2545.0,307 L 2520,360 L 2640,360"/>
<text class="label-flow" x="2524" y="356">Non</text>
<path class="flow" d="M 2640,320.0 L 2520,360"/>
<path class="flow" d="M 2880,320.0 L 2900,320.0"/>
<path class="flow" d="M 256,1460.0 L 340,1460.0"/>
<path class="flow" d="M 460,1460.0 L 440,780 L 440,180 L 500,180"/>
<path class="flow" d="M 620,120.0 L 660,120.0"/>
<path class="flow" d="M 780,120.0 L 780,180 L 780,780 L 820,780"/>
<path class="flow" d="M 1056,1060.0 L 1120,1060.0"/>
<path class="flow" d="M 1240,1060.0 L 1210,780 L 1210,540 L 1270,540"/>
<path class="flow" d="M 1295.0,1472.0 L 1402.5,1472.0 L 1402.5,1060.0 L 1510,1060.0"/>
<text class="label-flow" x="1406.5" y="1056.0">Oui</text>
<path class="flow" d="M 1295.0,1447 L 1270,900 L 1390,900"/>
<text class="label-flow" x="1274" y="896">Non</text>
<path class="flow" d="M 1390,1060.0 L 1270,900"/>
<path class="flow" d="M 1630,1060.0 L 1630,780 L 1630,540"/>
<path class="flow" d="M 1750,1460.0 L 1770,540"/>
<circle class="event-start" cx="238.0" cy="120.0" r="18.0"/>
<text text-anchor="middle" x="238.0" y="118.0">Données</text>
<text text-anchor="middle" x="238.0" y="132.0">insuffisantes détectées</text>
<rect class="task" x="320" y="80" width="120" height="80" rx="8"/>
<text text-anchor="middle" x="380.0" y="118.0">Identifier les</text>
<text text-anchor="middle" x="380.0" y="132.0">données manquantes</text>
<rect class="task" x="470" y="80" width="120" height="80" rx="8"/>
<text text-anchor="middle" x="530.0" y="124.0">Compléter la demande</text>
<rect class="task" x="620" y="480" width="120" height="80" rx="8"/>
<text text-anchor="middle" x="680.0" y="524.0">Mettre à jour la demande</text>
<polygon class="gateway" points="795.0,107 820,132.0 795.0,157 770,132.0"/>
<text text-anchor="middle" x="795.0" y="130.0">Données minimales</text>
<text text-anchor="middle" x="795.0" y="144.0">complètes ?</text>
<circle class="event-end" cx="938.0" cy="120.0" r="18.0"/><circle fill="none" stroke="#dc2626" stroke-width="2" cx="938.0" cy="120.0" r="14.0"/>
<text text-anchor="middle" x="938.0" y="124.0">Demande prête à qualifier</text>
<circle class="event-start" cx="1038.0" cy="520.0" r="18.0"/>
<text text-anchor="middle" x="1038.0" y="524.0">Doublon potentiel détecté</text>
<rect class="task" x="1120" y="480" width="120" height="80" rx="8"/>
<text text-anchor="middle" x="1180.0" y="518.0">Afficher les</text>
<text text-anchor="middle" x="1180.0" y="532.0">demandes proches</text>
<rect class="task" x="1270" y="80" width="120" height="80" rx="8"/>
<text text-anchor="middle" x="1330.0" y="124.0">Comparer les demandes</text>
<polygon class="gateway" points="1445.0,107 1470,132.0 1445.0,157 1420,132.0"/>
<text text-anchor="middle" x="1445.0" y="136.0">Doublon confirmé ?</text>
<rect class="task" x="1540" y="80" width="120" height="80" rx="8"/>
<text text-anchor="middle" x="1600.0" y="118.0">Marquer /</text>
<text text-anchor="middle" x="1600.0" y="132.0">rapprocher comme doublon</text>
<circle class="event-end" cx="1718.0" cy="120.0" r="18.0"/><circle fill="none" stroke="#dc2626" stroke-width="2" cx="1718.0" cy="120.0" r="14.0"/>
<text text-anchor="middle" x="1718.0" y="124.0">Doublon traité</text>
<rect class="task" x="1540" y="110" width="120" height="80" rx="8"/>
<text text-anchor="middle" x="1600.0" y="154.0">Continuer la qualification</text>
<circle class="event-end" cx="1718.0" cy="150.0" r="18.0"/><circle fill="none" stroke="#dc2626" stroke-width="2" cx="1718.0" cy="150.0" r="14.0"/>
<text text-anchor="middle" x="1718.0" y="154.0">Arbitrage doublon terminé</text>
<circle class="event-start" cx="1988.0" cy="320.0" r="18.0"/>
<text text-anchor="middle" x="1988.0" y="324.0">Blocage client identifié</text>
<rect class="task" x="2070" y="280" width="120" height="80" rx="8"/>
<text text-anchor="middle" x="2130.0" y="324.0">Passer en attente client</text>
<rect class="task" x="2220" y="280" width="120" height="80" rx="8"/>
<text text-anchor="middle" x="2280.0" y="318.0">Renseigner le</text>
<text text-anchor="middle" x="2280.0" y="332.0">motif d'attente</text>
<rect class="task" x="2370" y="480" width="120" height="80" rx="8"/>
<text text-anchor="middle" x="2430.0" y="518.0">Rendre l'attente</text>
<text text-anchor="middle" x="2430.0" y="532.0">visible au dashboard</text>
<polygon class="gateway" points="2545.0,307 2570,332.0 2545.0,357 2520,332.0"/>
<text text-anchor="middle" x="2545.0" y="336.0">Blocage levé ?</text>
<rect class="task" x="2640" y="280" width="120" height="80" rx="8"/>
<text text-anchor="middle" x="2700.0" y="318.0">Maintenir en</text>
<text text-anchor="middle" x="2700.0" y="332.0">attente client</text>
<rect class="task" x="2760" y="280" width="120" height="80" rx="8"/>
<text text-anchor="middle" x="2820.0" y="324.0">Reprendre l'intervention</text>
<circle class="event-end" cx="2918.0" cy="320.0" r="18.0"/><circle fill="none" stroke="#dc2626" stroke-width="2" cx="2918.0" cy="320.0" r="14.0"/>
<text text-anchor="middle" x="2918.0" y="324.0">Intervention reprise</text>
<circle class="event-start" cx="238.0" cy="1460.0" r="18.0"/>
<text text-anchor="middle" x="238.0" y="1464.0">Échéance dépassée</text>
<rect class="task" x="340" y="1420" width="120" height="80" rx="8"/>
<text text-anchor="middle" x="400.0" y="1464.0">Signaler le retard</text>
<rect class="task" x="500" y="80" width="120" height="80" rx="8"/>
<text text-anchor="middle" x="560.0" y="118.0">Analyser la</text>
<text text-anchor="middle" x="560.0" y="132.0">cause du retard</text>
<rect class="task" x="660" y="80" width="120" height="80" rx="8"/>
<text text-anchor="middle" x="720.0" y="124.0">Réajuster la planification</text>
<circle class="event-end" cx="838.0" cy="1460.0" r="18.0"/><circle fill="none" stroke="#dc2626" stroke-width="2" cx="838.0" cy="1460.0" r="14.0"/>
<text text-anchor="middle" x="838.0" y="1464.0">Retard pris en compte</text>
<circle class="event-start" cx="1038.0" cy="1060.0" r="18.0"/>
<text text-anchor="middle" x="1038.0" y="1058.0">Signature</text>
<text text-anchor="middle" x="1038.0" y="1072.0">client indisponible</text>
<rect class="task" x="1120" y="1020" width="120" height="80" rx="8"/>
<text text-anchor="middle" x="1180.0" y="1058.0">Sélectionner un</text>
<text text-anchor="middle" x="1180.0" y="1072.0">motif d'absence</text>
<polygon class="gateway" points="1295.0,1447 1320,1472.0 1295.0,1497 1270,1472.0"/>
<text text-anchor="middle" x="1295.0" y="1476.0">Motif suffisant ?</text>
<rect class="task" x="1390" y="1020" width="120" height="80" rx="8"/>
<text text-anchor="middle" x="1450.0" y="1064.0">Compléter le motif</text>
<rect class="task" x="1510" y="1020" width="120" height="80" rx="8"/>
<text text-anchor="middle" x="1570.0" y="1064.0">Valider le compte rendu</text>
<rect class="task" x="1630" y="1420" width="120" height="80" rx="8"/>
<text text-anchor="middle" x="1690.0" y="1464.0">Clôturer sans signature</text>
<circle class="event-end" cx="1788.0" cy="1460.0" r="18.0"/><circle fill="none" stroke="#dc2626" stroke-width="2" cx="1788.0" cy="1460.0" r="14.0"/>
<text text-anchor="middle" x="1788.0" y="1458.0">Intervention clôturée</text>
<text text-anchor="middle" x="1788.0" y="1472.0">sans signature</text>
<rect class="annotation" x="1000" y="1520" width="360" height="60" rx="4"/>
<text class="ann-text" x="1010" y="1538">Motifs : Client absent ; Signature refusée ;</text>
<text class="ann-text" x="1010" y="1552">Non applicable ; Contrainte terrain ; Autre</text>
</svg>
